<svg width="132" height="132" viewBox="0 0 132 132" fill="none" xmlns="http://www.w3.org/2000/svg">
<rect x="0.5" y="0.5" width="131" height="131" rx="23.5" fill="white"/>
<rect x="0.5" y="0.5" width="131" height="131" rx="23.5" stroke="black"/>
<path d="M54.2575 72.7637L56.3155 82.7335L66.0018 79.5258L75.6863 82.7335L77.7443 72.7637L85.3725 66.0017L77.7425 59.238L75.6863 49.2683L66 52.476L56.3155 49.2665L54.2575 59.2363L46.6293 66L54.2575 72.7637ZM54.2575 72.7637L98.669 47.1875M54.2575 72.7637L33.3328 84.8125M66 28.375V79.5275V103.625M54.9068 36.5143L66.0018 41.8132L77.095 36.5143M77.095 95.4875L66 90.1885L54.9068 95.4875M86.055 41.675L87 53.9075L97.15 60.841M45.945 90.3285L45 78.096M34.8535 71.1625L45 78.0942M98.669 84.8142L77.7425 72.7637L33.3345 47.1875M97.15 71.1625L87.0035 78.096M86.055 90.3285L87 78.096M34.8535 60.841L45 53.9075L45.945 41.675" stroke="black" stroke-width="1.75" stroke-linecap="round" stroke-linejoin="round"/>
</svg>
