<svg width="132" height="132" viewBox="0 0 132 132" fill="none" xmlns="http://www.w3.org/2000/svg">
<rect x="0.5" y="0.5" width="131" height="131" rx="23.5" fill="#0D2C54"/>
<rect x="0.5" y="0.5" width="131" height="131" rx="23.5" stroke="black"/>
<path d="M52.875 42.375C52.875 35.13 58.755 29.25 66 29.25C73.245 29.25 79.125 35.13 79.125 42.375V58.125H82.59C85.0312 58.125 87 56.1562 87 53.715V46.3125C87 44.572 87.6914 42.9028 88.9221 41.6721C90.1528 40.4414 91.822 39.75 93.5625 39.75C95.303 39.75 96.9722 40.4414 98.2029 41.6721C99.4336 42.9028 100.125 44.572 100.125 46.3125V53.715C100.125 63.375 92.25 71.25 82.59 71.25H79.125V100.282C79.125 101.647 78.0225 102.75 76.6575 102.75H55.3425C53.9775 102.75 52.875 101.647 52.875 100.282V89.625H49.41C44.7594 89.625 40.2993 87.7776 37.0109 84.4891C33.7224 81.2007 31.875 76.7406 31.875 72.09V54.1875C31.875 50.6175 34.7362 47.7037 38.3062 47.625C41.9812 47.5463 45 50.6438 45 54.3188V72.09C45 74.5312 46.9688 76.5 49.41 76.5H52.875V42.375Z" fill="#86D72F"/>
<path d="M58.125 81.75V31.875C58.9388 31.2713 59.805 30.7463 60.75 30.3525V102.75H58.125V84.375H49.41C42.6375 84.375 37.125 78.8625 37.125 72.09V54.1875C37.125 53.4788 37.7025 52.9013 38.4112 52.875H38.4375C39.1463 52.875 39.75 53.5575 39.75 54.3188V72.09C39.75 77.4188 44.0813 81.75 49.41 81.75H58.125ZM71.25 102.75H73.875V31.875C73.0612 31.2713 72.195 30.7463 71.25 30.3525V102.75ZM92.25 39.8813C92.67 39.8025 93.1162 39.75 93.5625 39.75C94.0088 39.75 94.455 39.8025 94.875 39.8813V53.715C94.875 60.4875 89.3625 66 82.59 66H79.125V63.375H82.59C87.9187 63.375 92.25 59.0438 92.25 53.715V39.8813Z" fill="#44911B"/>
<path d="M75.03 34.1061L76.8937 32.2424C77.4187 31.7174 78.2325 31.7174 78.7575 32.2424C79.2825 32.7674 79.2825 33.5811 78.7575 34.1061L76.8937 35.9699C76.3687 36.4949 75.555 36.4949 75.03 35.9699C74.505 35.4711 74.505 34.6311 75.03 34.1061ZM54.1875 50.2499H51.5625C50.8275 50.2499 50.25 49.6724 50.25 48.9374C50.25 48.2024 50.8275 47.6249 51.5625 47.6249H54.1875C54.9225 47.6249 55.5 48.2024 55.5 48.9374C55.5 49.6724 54.9225 50.2499 54.1875 50.2499ZM55.1063 32.2686L56.97 34.1061C57.495 34.6311 57.495 35.4711 56.97 35.9961C56.445 36.5211 55.6313 36.5211 55.1063 35.9961L53.2425 34.1324C52.7175 33.6074 52.7175 32.7936 53.2425 32.2686C53.7675 31.7436 54.5813 31.7436 55.1063 32.2686ZM95.2687 64.5299L97.1325 66.3936C97.6575 66.9186 97.6575 67.7324 97.1325 68.2574C96.6075 68.7824 95.7937 68.7824 95.2687 68.2574L93.405 66.3936C92.88 65.8686 92.88 65.0549 93.405 64.5299C93.9038 64.0049 94.7437 64.0049 95.2687 64.5299ZM32.2688 49.8561L34.1062 51.7199C34.6312 52.2449 35.4713 52.2449 35.9963 51.7199C36.5213 51.1949 36.5213 50.3811 35.9963 49.8561L34.1325 47.9924C33.6075 47.4674 32.7938 47.4674 32.2688 47.9924C31.7438 48.5174 31.7438 49.3311 32.2688 49.8561ZM89.2313 43.8449L87.3675 41.9811C86.8425 41.4561 86.8425 40.6424 87.3675 40.1174C87.8925 39.5924 88.7063 39.5924 89.2313 40.1174L91.095 41.9811C91.62 42.5061 91.62 43.3199 91.095 43.8449C90.5962 44.3699 89.7563 44.3699 89.2313 43.8449ZM36.7312 86.6324L38.595 84.7686C39.12 84.2436 39.12 83.4036 38.595 82.9049C38.07 82.3799 37.2562 82.3799 36.7312 82.9049L34.8675 84.7686C34.3425 85.2936 34.3425 86.1074 34.8675 86.6324C35.3925 87.1574 36.2062 87.1574 36.7312 86.6324ZM43.53 62.9811L45.3937 61.1174C45.9187 60.5924 46.7325 60.5924 47.2575 61.1174C47.7825 61.6424 47.7825 62.4561 47.2575 62.9811L45.3937 64.8449C44.8687 65.3699 44.055 65.3699 43.53 64.8449C43.005 64.3461 43.005 63.5061 43.53 62.9811ZM80.4375 86.9999H77.8125C77.0775 86.9999 76.5 87.5774 76.5 88.3124C76.5 89.0474 77.0775 89.6249 77.8125 89.6249H80.4375C81.1725 89.6249 81.75 89.0474 81.75 88.3124C81.75 87.5774 81.1725 86.9999 80.4375 86.9999ZM54.1875 94.8749H51.5625C50.8275 94.8749 50.25 94.2974 50.25 93.5624C50.25 92.8274 50.8275 92.2499 51.5625 92.2499H54.1875C54.9225 92.2499 55.5 92.8274 55.5 93.5624C55.5 94.2974 54.9225 94.8749 54.1875 94.8749ZM71.25 52.8749H75.1875C75.9225 52.8749 76.5 53.4524 76.5 54.1874C76.5 54.9224 75.9225 55.4999 75.1875 55.4999H71.25V52.8749ZM55.9987 66.3936L60.75 71.2499V67.4699L57.8625 64.5299C57.3375 64.0049 56.5237 64.0049 55.9987 64.5299C55.4737 65.0549 55.4737 65.8686 55.9987 66.3936ZM71.3025 82.0649L76.0537 77.2086C76.5787 76.7099 76.5787 75.8699 76.0537 75.3449C75.5287 74.8199 74.715 74.8199 74.19 75.3449L71.3025 78.2849V82.0649Z" fill="#C3EF3C"/>
</svg>
