<svg width="132" height="132" viewBox="0 0 132 132" fill="none" xmlns="http://www.w3.org/2000/svg">
<rect x="0.5" y="0.5" width="131" height="131" rx="23.5" fill="#00A6ED"/>
<rect x="0.5" y="0.5" width="131" height="131" rx="23.5" stroke="black"/>
<path d="M77.7632 52.4442C74.3768 55.8306 70.3352 60.2306 69.8391 65.9567C70.3352 71.6828 74.3769 76.0828 77.7632 79.4693C82.3492 83.4212 85.2529 89.2715 85.2529 95.8004C85.2529 95.8118 85.2521 95.8232 85.252 95.8346H85.2529V105.026H42.1531V95.8346H42.1541C42.1541 95.8232 42.1531 95.8118 42.1531 95.8004C42.1531 89.2715 45.0568 83.4212 49.6429 79.4693C53.0293 76.0828 57.0708 71.6828 57.5669 65.9567C57.0708 60.2306 53.0291 55.8306 49.6429 52.4442C45.0568 48.4923 42.1531 42.642 42.1531 36.1131V26.7832H85.2529V36.1131C85.2529 42.642 82.3492 48.4923 77.7632 52.4442Z" fill="#F9E7C0"/>
<path d="M63.703 94.1374C65.3071 94.1374 73.4608 103.012 73.4608 103.012H53.9453C53.9453 103.012 62.099 94.1374 63.703 94.1374ZM62.8417 82.354C62.7134 82.3523 62.5861 82.3761 62.4671 82.4241C62.348 82.472 62.2397 82.5431 62.1484 82.6333C62.0571 82.7234 61.9846 82.8308 61.9351 82.9491C61.8856 83.0675 61.8602 83.1945 61.8602 83.3228C61.8602 83.4512 61.8856 83.5782 61.9351 83.6966C61.9846 83.8149 62.0571 83.9223 62.1484 84.0124C62.2397 84.1026 62.348 84.1737 62.4671 84.2216C62.5861 84.2696 62.7134 84.2934 62.8417 84.2917C63.0965 84.2884 63.3397 84.1849 63.5187 84.0035C63.6977 83.8222 63.7981 83.5776 63.7981 83.3228C63.7981 83.068 63.6977 82.8235 63.5187 82.6422C63.3397 82.4608 63.0965 82.3573 62.8417 82.354ZM63.8107 85.7991C63.6824 85.7975 63.555 85.8213 63.436 85.8692C63.317 85.9172 63.2087 85.9883 63.1174 86.0784C63.0261 86.1685 62.9536 86.2759 62.9041 86.3943C62.8546 86.5127 62.8291 86.6397 62.8291 86.768C62.8291 86.8963 62.8546 87.0233 62.9041 87.1417C62.9536 87.2601 63.0261 87.3675 63.1174 87.4576C63.2087 87.5477 63.317 87.6188 63.436 87.6668C63.555 87.7147 63.6824 87.7385 63.8107 87.7369C64.0654 87.7336 64.3087 87.63 64.4877 87.4487C64.6666 87.2673 64.767 87.0228 64.767 86.768C64.767 86.5132 64.6666 86.2687 64.4877 86.0873C64.3087 85.906 64.0654 85.8024 63.8107 85.7991ZM61.4629 91.5825C61.3346 91.5808 61.2073 91.6047 61.0883 91.6526C60.9693 91.7005 60.861 91.7716 60.7696 91.8618C60.6783 91.9519 60.6058 92.0593 60.5563 92.1777C60.5069 92.296 60.4814 92.4231 60.4814 92.5514C60.4814 92.6797 60.5069 92.8067 60.5563 92.9251C60.6058 93.0435 60.6783 93.1508 60.7696 93.241C60.861 93.3311 60.9693 93.4022 61.0883 93.4501C61.2073 93.4981 61.3346 93.5219 61.4629 93.5202C61.7177 93.5169 61.9609 93.4134 62.1399 93.232C62.3189 93.0507 62.4193 92.8062 62.4193 92.5514C62.4193 92.2966 62.3189 92.052 62.1399 91.8707C61.9609 91.6893 61.7177 91.5858 61.4629 91.5825ZM64.3439 77.9376C64.2156 77.9359 64.0882 77.9597 63.9692 78.0077C63.8502 78.0556 63.7419 78.1267 63.6506 78.2169C63.5593 78.307 63.4868 78.4144 63.4373 78.5327C63.3878 78.6511 63.3623 78.7781 63.3623 78.9065C63.3623 79.0348 63.3878 79.1618 63.4373 79.2802C63.4868 79.3985 63.5593 79.5059 63.6506 79.596C63.7419 79.6862 63.8502 79.7573 63.9692 79.8052C64.0882 79.8532 64.2156 79.877 64.3439 79.8753C64.5986 79.872 64.8419 79.7685 65.0209 79.5871C65.1999 79.4058 65.3002 79.1613 65.3002 78.9065C65.3002 78.6517 65.1999 78.4071 65.0209 78.2258C64.8419 78.0444 64.5986 77.9409 64.3439 77.9376ZM47.6663 43.5115C47.6663 47.5337 52.2157 51.138 55.041 53.5727C57.1273 55.6589 60.6941 59.6067 60.6941 64.5627C60.6941 64.7287 60.702 64.8877 60.715 65.0419C60.8198 69.0905 61.3382 73.6055 62.6243 75.2166C62.5212 75.3428 62.4515 75.4931 62.4219 75.6534C62.3922 75.8137 62.4035 75.9789 62.4546 76.1337C62.5058 76.2885 62.5951 76.4279 62.7145 76.5389C62.8338 76.65 62.9792 76.7292 63.1373 76.7691C63.2953 76.8091 63.4609 76.8085 63.6187 76.7674C63.7765 76.7264 63.9213 76.6462 64.0399 76.5342C64.1584 76.4223 64.2468 76.2823 64.2968 76.1271C64.3469 75.972 64.357 75.8067 64.3261 75.6466C66.0529 74.5846 66.6517 69.0671 66.7075 64.2069C67.0028 60.0228 70.3714 55.5663 72.365 53.5727C75.1904 51.138 79.7398 47.5338 79.7398 43.5115C79.7398 41.5548 47.6663 41.5548 47.6663 43.5115ZM64.8164 89.7365C64.6881 89.7348 64.5607 89.7586 64.4417 89.8066C64.3227 89.8545 64.2144 89.9256 64.1231 90.0157C64.0318 90.1059 63.9593 90.2132 63.9098 90.3316C63.8603 90.45 63.8348 90.577 63.8348 90.7053C63.8348 90.8336 63.8603 90.9607 63.9098 91.079C63.9593 91.1974 64.0318 91.3048 64.1231 91.3949C64.2144 91.4851 64.3227 91.5562 64.4417 91.6041C64.5607 91.652 64.6881 91.6759 64.8164 91.6742C65.0711 91.6709 65.3144 91.5674 65.4934 91.386C65.6723 91.2047 65.7727 90.9601 65.7727 90.7053C65.7727 90.4505 65.6723 90.206 65.4934 90.0247C65.3144 89.8433 65.0711 89.7398 64.8164 89.7365Z" fill="#FFB636"/>
<path d="M85.2533 29.1892H42.1532C40.8243 29.1892 39.7471 28.112 39.7471 26.7831C39.7471 25.4542 40.8243 24.377 42.1532 24.377H85.2533C86.5822 24.377 87.6594 25.4542 87.6594 26.7831C87.6594 28.112 86.582 29.1892 85.2533 29.1892ZM87.6594 105.026C87.6594 103.697 86.5822 102.62 85.2533 102.62H42.1532C40.8243 102.62 39.7471 103.697 39.7471 105.026C39.7471 106.355 40.8243 107.432 42.1532 107.432H85.2533C86.582 107.432 87.6594 106.355 87.6594 105.026Z" fill="#68442A"/>
<path d="M79.7398 42.9384C79.7398 44.4274 72.56 45.6346 63.703 45.6346C54.8461 45.6346 47.6663 44.4274 47.6663 42.9384C47.6663 41.4494 54.8461 40.2422 63.703 40.2422C72.56 40.2422 79.7398 41.4494 79.7398 42.9384Z" fill="#FFD469"/>
</svg>
