<svg width="132" height="132" viewBox="0 0 132 132" fill="none" xmlns="http://www.w3.org/2000/svg">
<rect x="0.5" y="0.5" width="131" height="131" rx="23.5" fill="#7FB800"/>
<rect x="0.5" y="0.5" width="131" height="131" rx="23.5" stroke="black"/>
<path d="M50.5065 27.1631C52.1624 28.9241 53.2534 31.0478 53.88 33.3412C54.8975 37.0666 54.8325 41.2405 54.4903 45.4972C53.8052 54.0111 52.0982 62.9719 54.09 68.5328C55.9596 73.7522 58.9574 76.8524 62.2833 78.3765C63.7139 79.0324 65.22 79.3953 66.7435 79.4892C70.3848 68.8113 69.608 55.1843 63.6164 45.974C71.5492 53.8874 75.296 65.8367 72.8755 78.3611L71.435 78.9402C71.8847 78.8059 72.3278 78.6503 72.7627 78.4738C79.6178 75.7061 85.2274 67.6042 82.8936 55.7257C81.8213 50.2682 78.1414 42.5736 71.9834 36.6124C66.656 31.4556 59.5431 27.5542 50.5064 27.1634L50.5065 27.1631ZM97.0949 57.274C96.957 59.2591 96.3339 61.134 95.3624 62.8368C93.6638 65.8129 91.0232 68.3751 88.1639 70.8091C82.4454 75.6769 75.8499 80.1863 73.6751 84.7902C71.6153 89.1515 71.5613 92.8706 72.6602 95.8288C73.1298 97.0948 73.8323 98.2616 74.7315 99.2689C83.543 94.8741 91.4216 85.9946 93.4034 76.6233C93.4159 86.409 88.3782 96.0954 79.1917 102.366C85.0655 104.752 93.3473 103.192 99.1614 94.5317C101.855 90.5194 104.339 83.4903 104.216 76.0132C104.112 69.6659 102.204 63.0145 97.095 57.2745L97.0949 57.274ZM27.389 69.3276C25.8332 76.8545 27.5051 83.5735 30.5882 89.1228C34.2199 95.659 39.8876 100.505 44.2259 102.632C53.5889 107.224 61.5368 104.432 65.431 99.428C54.342 98.5913 45.1377 92.7223 40.2579 84.2419C46.6596 91.3668 57.9205 95.1176 67.7485 94.5163C68.025 93.1948 68.0512 91.8332 67.8256 90.502C67.2983 87.3906 65.386 84.1943 61.4219 81.4478C57.2375 78.5488 49.2739 77.9434 41.8881 76.5874C38.1954 75.9098 34.6289 75.014 31.6703 73.2858C29.9767 72.2965 28.5016 70.9791 27.3893 69.3278L27.389 69.3276Z" fill="#F6511D"/>
</svg>
