<svg width="132" height="132" viewBox="0 0 132 132" fill="none" xmlns="http://www.w3.org/2000/svg">
<rect x="0.5" y="0.5" width="131" height="131" rx="23.5" fill="#F6511D"/>
<rect x="0.5" y="0.5" width="131" height="131" rx="23.5" stroke="black"/>
<g clip-path="url(#clip0_2250_424)">
<path d="M80.315 83.8959H96.422L105.371 74.9499L100.002 62.4199H91.053L82.107 44.5244H67.792L58.839 55.2624H46.309L33.7825 71.3694L46.3125 83.8994L80.315 83.8959Z" fill="white"/>
<path d="M57.0504 83.8959H46.3159L33.7859 71.3659H44.5239L49.8929 76.7384H60.6309L57.0504 83.8959ZM78.5299 76.7384H91.9489L96.4219 73.1579L100.002 62.4199L105.371 74.9499L96.4219 83.8959H82.1069L78.5299 76.7384ZM41.7239 49.1829L40.0509 39.1554L49.8929 26.6289L33.7859 30.2094L26.6284 40.0514L28.4204 54.3664L34.7099 57.8629M55.2619 89.2649L49.8929 100.895L55.2619 105.372L60.6309 100.895L55.2619 89.2649ZM83.8954 89.2649L89.2644 100.895L83.8954 105.372L78.5264 100.895L83.8954 89.2649ZM69.5804 74.9499L64.2114 86.5804L69.5804 91.0534L74.9494 86.5804L69.5804 74.9499Z" fill="#BBD8FF"/>
<path d="M55.2618 89.2652L49.8928 100.896L55.2618 105.372L60.6308 100.896L55.2618 89.2652ZM83.8953 89.2652L89.2643 100.896L83.8953 105.372L78.5263 100.896L83.8953 89.2652ZM69.5803 74.9502L64.2113 86.5807L69.5803 91.0537L74.9493 86.5807L69.5803 74.9502Z" stroke="#092F63" stroke-width="3.5" stroke-linecap="round" stroke-linejoin="round"/>
<path d="M83.8954 83.8959H96.4254L105.371 74.9499L100.002 62.4199H91.0529M91.0529 62.4199L82.1069 44.5244H67.7919L58.8389 55.2624H46.3089L33.7824 71.3694L46.3124 83.8994H55.2584M91.0529 62.4199H80.3149M41.7239 49.1829L40.0509 39.1554L49.8929 26.6289L33.7859 30.2094L26.6284 40.0514L28.4204 54.3664L34.7099 57.8629" stroke="#092F63" stroke-width="3.5" stroke-linecap="round" stroke-linejoin="round"/>
</g>
<defs>
<clipPath id="clip0_2250_424">
<rect width="84" height="84" fill="white" transform="translate(24 24)"/>
</clipPath>
</defs>
</svg>
