<svg width="132" height="132" viewBox="0 0 132 132" fill="none" xmlns="http://www.w3.org/2000/svg">
<rect x="0.5" y="0.5" width="131" height="131" rx="23.5" fill="#7FB800"/>
<rect x="0.5" y="0.5" width="131" height="131" rx="23.5" stroke="black"/>
<path d="M48.5503 51.5299C42.1782 59.7199 42.2897 74.269 50.4338 81.4812C59.6803 89.6646 72.6938 89.5793 80.8772 82.0521C90.6882 73.0221 90.1238 57.994 81.4482 49.4824C72.7266 40.9249 57.1407 40.4787 48.5503 51.5299Z" fill="#FCC11A"/>
<path d="M58.7813 48.7214C56.2613 47.6058 53.5051 50.6442 52.3041 52.7179C51.1032 54.7983 49.9876 58.8736 52.5469 59.917C55.1063 60.9539 56.9438 59.1951 58.7879 56.1567C60.6188 53.1183 61.6622 50.0011 58.7813 48.7214Z" fill="#FEE269"/>
<path d="M65.3438 37.3025C64.7335 38.4444 64.9369 39.3237 66.151 39.6125C67.365 39.9012 74.9185 41.1284 75.555 41.1678C76.4803 41.2269 76.8216 40.5312 76.71 39.724C76.5919 38.9169 74.7478 27.6097 74.5772 26.5728C74.4066 25.5359 73.3106 24.499 72.2672 25.8837C71.2238 27.2684 65.8031 36.4428 65.3438 37.3025ZM84.9 45.1512C83.7122 45.5187 83.745 46.2472 84.3816 47.1725C85.0181 48.0978 89.4019 54.785 89.8022 55.2509C90.2091 55.7103 90.8981 55.8284 91.4756 55.1328C92.0531 54.4437 99.2588 44.3375 99.7838 43.7075C100.65 42.6706 100.132 41.5747 98.806 41.9159C97.7953 42.185 85.6481 44.9215 84.9 45.1512ZM93.9563 64.5959C93.1031 64.1103 91.9941 64.2481 91.7053 65.344C91.4166 66.44 90.15 74.4003 90.0319 75.0959C89.9138 75.7915 90.4388 76.4806 91.2985 76.31C92.1581 76.1394 104.063 74.374 104.857 74.1772C106.241 73.8294 106.701 72.4447 105.263 71.4078C104.332 70.7319 94.7635 65.0553 93.9563 64.5959ZM84.4341 83.4565C85.3528 82.9644 86.1666 83.3384 86.3963 84.3819C86.626 85.4187 89.1656 96.0369 89.5725 97.999C89.776 98.9834 88.6472 99.7906 87.7285 99.2131C86.8031 98.6356 76.7756 91.6465 76.1325 91.0756C75.2072 90.2684 75.8503 89.4284 76.3031 89.0019C77.2219 88.129 83.5678 83.9225 84.4341 83.4565ZM56.5106 89.284C55.3491 89.1725 55.0078 90.2094 55.185 91.1281C55.3556 92.0534 57.0881 103.754 57.2063 104.627C57.3769 105.894 58.7091 106.419 59.5688 105.146C60.4285 103.872 66.361 94.3831 66.84 93.4906C67.7063 91.8762 67.0697 91.5284 66.2035 91.1281C65.3438 90.7278 57.7247 89.4022 56.5106 89.284ZM39.901 75.844C40.7081 74.5184 41.745 74.8662 42.4997 76.1328C43.0116 76.999 47.3428 82.8265 47.7497 83.4565C48.1566 84.0931 48.3272 85.3006 47.0606 85.5894C45.781 85.8847 35.4581 88.595 33.8438 88.8837C32.2294 89.1725 31.3041 87.9059 32.341 86.5212C32.9447 85.7075 39.4416 76.5987 39.901 75.844ZM37.7091 65.8034C39.1856 66.4597 39.8813 66.2234 40.1897 65.1669C40.5966 63.7822 41.8041 57.4362 41.8631 55.9925C41.9025 55.054 41.5153 54.1484 40.0716 54.3781C38.6278 54.6078 28.246 56.0581 26.9203 56.5175C25.3781 57.0556 25.4897 58.7487 26.5135 59.2869C27.7275 59.9234 36.6656 65.344 37.7091 65.8034ZM55.651 41.5747C56.4844 40.9119 56.2285 39.9603 55.4803 39.4419C54.7322 38.9234 45.466 32.2231 44.2913 31.3044C43.2544 30.4972 41.9813 30.7859 42.3291 32.63C42.5785 33.9556 45.5316 45.5581 45.735 46.3587C45.9647 47.284 46.6603 47.7434 47.4675 47.1659C48.2616 46.595 54.7847 42.2703 55.651 41.5747Z" fill="#FFA722"/>
</svg>
