<svg width="132" height="132" viewBox="0 0 132 132" fill="none" xmlns="http://www.w3.org/2000/svg">
<rect x="0.5" y="0.5" width="131" height="131" rx="23.5" fill="#FFB400"/>
<rect x="0.5" y="0.5" width="131" height="131" rx="23.5" stroke="black"/>
<path d="M66 48.9375C64.95 48.1792 63.8277 47.625 62.633 47.275C61.4383 46.925 60.2273 46.75 59 46.75C57.425 46.75 55.8792 47.0568 54.3625 47.6705C52.8458 48.2842 51.5042 49.1732 50.3375 50.3375C49.1708 51.5018 48.2807 52.8435 47.667 54.3625C47.0533 55.8815 46.7477 57.4273 46.75 59C46.75 60.225 46.925 61.436 47.275 62.633C47.625 63.83 48.1792 64.9523 48.9375 66C48.1792 67.05 47.625 68.1735 47.275 69.3705C46.925 70.5675 46.75 71.7773 46.75 73C46.75 74.575 47.0568 76.1208 47.6705 77.6375C48.2842 79.1542 49.1732 80.4958 50.3375 81.6625C51.5018 82.8292 52.8435 83.7182 54.3625 84.3295C55.8815 84.9408 57.4273 85.2477 59 85.25C60.225 85.25 61.436 85.075 62.633 84.725C63.83 84.375 64.9523 83.8208 66 83.0625C67.05 83.8208 68.1735 84.375 69.3705 84.725C70.5675 85.075 71.7773 85.25 73 85.25C74.575 85.25 76.1208 84.9432 77.6375 84.3295C79.1542 83.7158 80.4958 82.8268 81.6625 81.6625C82.8292 80.4982 83.7182 79.1565 84.3295 77.6375C84.9408 76.1185 85.2477 74.5727 85.25 73C85.25 71.775 85.075 70.564 84.725 69.367C84.375 68.17 83.8208 67.0477 83.0625 66C83.8208 64.95 84.375 63.8277 84.725 62.633C85.075 61.4383 85.25 60.2273 85.25 59C85.25 57.425 84.9443 55.8792 84.333 54.3625C83.7217 52.8458 82.8315 51.5042 81.6625 50.3375C80.4935 49.1708 79.1518 48.2807 77.6375 47.667C76.1232 47.0533 74.5773 46.7477 73 46.75C71.775 46.75 70.5652 46.925 69.3705 47.275C68.1758 47.625 67.0523 48.1792 66 48.9375ZM66 70.375C67.225 70.375 68.261 69.9515 69.108 69.1045C69.955 68.2575 70.3773 67.2227 70.375 66C70.3727 64.7773 69.9492 63.7413 69.1045 62.892C68.2598 62.0427 67.225 61.6203 66 61.625C64.775 61.6297 63.739 62.0532 62.892 62.8955C62.045 63.7378 61.6227 64.7727 61.625 66C61.6273 67.2273 62.0508 68.2633 62.8955 69.108C63.7402 69.9527 64.775 70.375 66 70.375ZM66 101C61.1583 101 56.6083 100.081 52.35 98.242C48.0917 96.4033 44.3875 93.9102 41.2375 90.7625C38.0875 87.6148 35.5943 83.9107 33.758 79.65C31.9217 75.3893 31.0023 70.8393 31 66C30.9977 61.1607 31.917 56.6107 33.758 52.35C35.599 48.0893 38.0922 44.3852 41.2375 41.2375C44.3828 38.0898 48.087 35.5967 52.35 33.758C56.613 31.9193 61.163 31 66 31C70.837 31 75.387 31.9193 79.65 33.758C83.913 35.5967 87.6172 38.0898 90.7625 41.2375C93.9078 44.3852 96.4022 48.0893 98.2455 52.35C100.089 56.6107 101.007 61.1607 101 66C100.993 70.8393 100.074 75.3893 98.242 79.65C96.4103 83.9107 93.9172 87.6148 90.7625 90.7625C87.6078 93.9102 83.9037 96.4045 79.65 98.2455C75.3963 100.087 70.8463 101.005 66 101Z" fill="#F6511D"/>
</svg>
